<?xml version="1.0" standalone="no"?>
<!DOCTYPE svg PUBLIC "-//W3C//DTD SVG 20010904//EN"
 "http://www.w3.org/TR/2001/REC-SVG-20010904/DTD/svg10.dtd">
<svg version="1.0" xmlns="http://www.w3.org/2000/svg"
 width="600.000000pt" height="284.000000pt" viewBox="0 0 600.000000 284.000000"
 preserveAspectRatio="xMidYMid meet">

<g transform="translate(0.000000,284.000000) scale(0.100000,-0.100000)"
fill="#000000" stroke="none">
<path d="M912 1794 c-216 -58 -371 -282 -347 -499 40 -350 416 -539 719 -361
51 30 134 116 168 176 45 77 61 152 56 257 -5 85 -9 102 -47 177 -83 170 -240
267 -426 265 -38 0 -94 -7 -123 -15z m226 -9 c90 -21 158 -59 223 -124 280
-280 98 -756 -297 -779 -134 -7 -256 39 -351 134 -178 178 -177 465 1 647 49
50 98 79 171 105 99 35 159 39 253 17z"/>
<path d="M929 1716 c-65 -17 -128 -57 -183 -115 -141 -151 -136 -391 12 -538
195 -195 522 -136 640 115 24 50 27 69 27 162 0 94 -3 111 -27 160 -88 180
-279 268 -469 216z m164 -138 c10 -12 17 -37 17 -64 l0 -44 -75 0 -75 0 0 41
c0 22 5 49 11 60 22 42 89 46 122 7z m17 -153 c0 -24 -2 -25 -75 -25 -73 0
-75 1 -75 25 0 24 2 25 75 25 73 0 75 -1 75 -25z m0 -155 l0 -110 -75 0 -75 0
0 110 0 110 75 0 75 0 0 -110z m-3 -144 c-11 -28 -57 -96 -66 -96 -15 0 -71
82 -71 105 0 3 32 5 71 5 57 0 70 -3 66 -14z"/>
<path d="M2036 1614 c-100 -36 -140 -94 -134 -192 4 -60 7 -68 39 -95 19 -16
59 -39 89 -51 63 -26 93 -63 71 -90 -21 -25 -97 -20 -160 9 -30 14 -55 24 -56
23 -2 -2 -4 -37 -6 -78 l-4 -75 45 -12 c74 -19 192 -16 253 7 97 37 148 120
128 210 -12 54 -39 82 -110 115 -31 15 -68 33 -83 41 -16 9 -56 14 -109 14
-81 0 -82 0 -64 20 26 29 70 40 170 42 75 2 98 -1 139 -20 27 -12 50 -21 51
-20 2 2 4 36 6 77 4 73 3 75 -21 82 -45 13 -203 8 -244 -7z"/>
<path d="M2405 1620 c-4 -6 -55 -528 -55 -568 0 -2 37 -2 82 0 l83 3 12 125
c14 148 19 210 29 348 l7 102 -76 0 c-42 0 -78 -4 -82 -10z"/>
<path d="M2737 1623 c-3 -5 -8 -39 -11 -78 -4 -38 -9 -87 -12 -107 l-6 -38
-51 0 c-67 0 -77 -8 -84 -61 -3 -24 -10 -47 -16 -51 -5 -3 25 -9 67 -13 l77
-7 -6 -67 c-3 -36 -8 -85 -11 -109 l-5 -43 83 3 83 3 26 280 c14 154 24 283
22 288 -2 4 -37 7 -78 7 -41 0 -76 -3 -78 -7z"/>
<path d="M3077 1538 c-19 -51 -70 -180 -111 -286 -42 -105 -76 -194 -76 -197
0 -3 39 -4 87 -3 l86 3 14 40 c7 22 20 53 27 69 13 27 14 28 21 7 6 -19 14
-21 80 -21 l73 0 7 -50 7 -50 84 0 c68 0 84 3 84 15 0 8 -14 77 -30 152 -17
75 -42 190 -56 257 -14 67 -27 128 -30 137 -4 14 -22 17 -118 18 l-113 2 -36
-93z m157 -163 c9 -50 16 -93 16 -97 0 -5 -25 -8 -55 -8 -30 0 -55 2 -55 4 0
3 14 42 30 88 17 46 33 89 36 97 8 23 12 11 28 -84z"/>
<path d="M3440 1623 c0 -3 43 -73 96 -155 l96 -148 -11 -125 c-6 -69 -11 -130
-11 -135 0 -8 158 -16 161 -7 0 1 6 62 13 136 l13 134 -79 141 c-44 77 -84
146 -90 153 -11 14 -188 19 -188 6z"/>
<path d="M3797 1561 l-47 -69 38 -66 39 -66 41 48 c50 60 155 193 165 208 5 8
-21 12 -91 13 l-97 2 -48 -70z"/>
<path d="M4031 1349 c-61 -154 -111 -284 -111 -289 0 -6 37 -10 84 -10 79 0
85 1 91 23 4 12 17 44 28 71 17 39 22 45 27 30 6 -16 20 -20 81 -24 l74 -5 9
-47 8 -48 85 0 85 0 -7 33 c-6 30 -67 316 -101 475 l-16 73 -113 -2 -114 -1
-110 -279z m244 -46 l6 -33 -56 0 c-30 0 -55 3 -55 8 0 6 35 102 65 177 7 19
13 -1 40 -152z"/>
<path d="M4586 1622 c-3 -5 -14 -116 -25 -248 -11 -131 -23 -258 -26 -281 l-6
-43 84 0 84 0 12 133 c6 72 18 199 26 282 7 82 11 153 9 157 -7 11 -151 10
-158 0z"/>
<path d="M4956 1618 c-3 -7 -10 -71 -16 -143 -7 -71 -14 -132 -15 -133 -4 -4
-22 23 -101 153 l-49 80 -12 -140 -12 -140 72 -120 73 -120 86 -3 85 -3 7 83
c4 46 15 174 25 286 9 112 14 205 11 206 -3 2 -38 4 -78 5 -52 2 -73 -1 -76
-11z"/>
</g>
</svg>
