<?xml version="1.0" standalone="no"?>
<!DOCTYPE svg PUBLIC "-//W3C//DTD SVG 20010904//EN"
 "http://www.w3.org/TR/2001/REC-SVG-20010904/DTD/svg10.dtd">
<svg version="1.0" xmlns="http://www.w3.org/2000/svg"
 width="677.000000pt" height="321.000000pt" viewBox="0 0 677.000000 321.000000"
 preserveAspectRatio="xMidYMid meet">

<g transform="translate(0.000000,321.000000) scale(0.100000,-0.100000)"
fill="#000000" stroke="none">
<path d="M1048 2034 c-177 -42 -334 -190 -389 -363 -24 -78 -29 -201 -10 -281
21 -85 79 -188 146 -255 103 -103 231 -156 380 -155 149 0 262 48 371 155 85
85 128 166 151 284 73 371 -280 705 -649 615z m246 -20 c102 -26 166 -63 239
-135 227 -226 200 -600 -56 -783 -135 -96 -280 -122 -452 -81 -66 16 -164 78
-224 140 -197 205 -195 520 3 719 131 132 316 185 490 140z"/>
<path d="M1063 1945 c-83 -23 -153 -63 -209 -121 -215 -220 -146 -586 133
-717 86 -40 215 -49 308 -22 212 61 354 282 317 493 -45 263 -301 434 -549
367z m146 -140 c35 -17 41 -32 41 -96 l0 -49 -85 0 -85 0 0 40 c0 68 36 117
88 119 7 1 26 -6 41 -14z m41 -190 c0 -25 -1 -25 -85 -25 -76 0 -85 2 -85 18
0 29 8 32 92 32 77 0 78 0 78 -25z m0 -180 l0 -126 -82 3 -83 3 -3 123 -3 122
86 0 85 0 0 -125z m0 -150 c0 -14 -50 -103 -65 -115 -20 -17 -31 -6 -71 73
l-24 47 80 0 c44 0 80 -2 80 -5z"/>
<path d="M2353 1840 c-94 -19 -166 -68 -200 -134 -10 -20 -14 -49 -11 -90 5
-88 31 -119 134 -167 85 -39 110 -65 99 -99 -13 -41 -109 -38 -194 5 -28 14
-52 21 -54 17 -3 -4 -6 -43 -8 -87 l-4 -80 50 -13 c73 -19 220 -18 275 2 109
40 160 102 160 196 0 91 -39 136 -172 199 -81 38 -93 41 -173 41 -97 0 -105
10 -39 44 30 16 63 22 146 24 98 4 111 2 164 -22 31 -14 59 -24 61 -22 3 3 8
41 12 85 l7 81 -36 9 c-56 15 -171 20 -217 11z"/>
<path d="M2706 1793 c-3 -27 -15 -154 -26 -283 -11 -129 -23 -257 -26 -283
l-6 -48 94 3 93 3 12 115 c11 104 17 176 39 453 l7 87 -91 0 -90 0 -6 -47z"/>
<path d="M3076 1758 c-4 -46 -10 -104 -13 -130 l-6 -48 -72 0 -73 0 -7 -47
c-3 -27 -9 -58 -12 -70 -5 -22 -3 -23 77 -23 80 0 82 -1 77 -22 -3 -13 -9 -71
-13 -130 l-7 -108 92 0 c50 0 91 2 91 4 0 17 51 580 55 614 l6 42 -94 0 -94 0
-7 -82z"/>
<path d="M3390 1528 c-67 -171 -125 -320 -128 -330 -4 -18 2 -19 93 -16 l97 3
22 60 c12 33 27 69 33 79 10 19 11 19 17 -2 7 -20 14 -22 91 -22 l83 0 7 -46
c11 -77 7 -74 111 -74 52 0 94 2 94 4 0 5 -128 601 -137 634 -5 21 -9 22 -132
22 l-128 0 -123 -312z m255 50 c9 -51 19 -103 22 -115 5 -22 2 -23 -60 -23
l-64 0 41 115 c22 63 42 115 42 115 1 0 9 -42 19 -92z"/>
<path d="M3880 1836 c0 -3 50 -83 110 -178 93 -145 110 -176 106 -202 -3 -17
-8 -67 -11 -111 -3 -44 -8 -99 -12 -122 l-5 -43 94 0 95 0 12 128 c17 195 21
178 -82 362 l-93 165 -107 3 c-59 1 -107 0 -107 -2z"/>
<path d="M4283 1762 l-52 -77 27 -45 c14 -25 34 -59 43 -77 l16 -32 109 136
c60 75 115 145 122 155 13 17 8 18 -100 18 l-113 0 -52 -78z"/>
<path d="M4652 1788 c-11 -29 -68 -174 -126 -321 -58 -147 -106 -272 -106
-278 0 -5 42 -9 94 -9 l94 0 26 68 c35 90 42 100 51 73 6 -19 13 -21 90 -21
l83 0 8 -57 9 -58 99 -3 c98 -3 98 -3 93 20 -3 13 -33 151 -67 308 -34 157
-63 295 -67 308 -5 21 -9 22 -133 22 l-129 0 -19 -52z m157 -232 c11 -60 19
-111 17 -113 -2 -2 -30 -3 -63 -1 l-59 3 40 112 c22 62 41 111 42 110 1 -1 12
-51 23 -111z"/>
<path d="M5170 1832 c0 -20 -50 -580 -55 -614 l-5 -38 95 0 c92 0 95 1 95 23
0 12 7 92 15 177 9 85 22 220 30 299 7 80 12 149 9 153 -7 11 -184 10 -184 0z"/>
<path d="M5586 1798 c-3 -24 -10 -97 -17 -163 -6 -66 -12 -121 -13 -123 -2 -1
-38 57 -82 129 -60 100 -80 126 -85 112 -4 -10 -12 -78 -18 -152 l-11 -134 86
-144 85 -144 92 3 92 3 27 285 c15 157 27 304 27 328 l1 42 -89 0 -89 0 -6
-42z"/>
</g>
</svg>
